<?xml version="1.0" encoding="UTF-8" standalone="no"?>
<svg
   xmlns:dc="http://purl.org/dc/elements/1.1/"
   xmlns:cc="http://creativecommons.org/ns#"
   xmlns:rdf="http://www.w3.org/1999/02/22-rdf-syntax-ns#"
   xmlns:svg="http://www.w3.org/2000/svg"
   xmlns="http://www.w3.org/2000/svg"
   viewBox="0 0 1148.478 880.04883"
   height="auto"
   xml:space="preserve"
   id="svg2"
   version="1.1"><metadata
     id="metadata8"><rdf:RDF><cc:Work
         rdf:about=""><dc:format>image/svg+xml</dc:format><dc:type
           rdf:resource="http://purl.org/dc/dcmitype/StillImage" /></cc:Work></rdf:RDF></metadata><defs
     id="defs6"><clipPath
       id="clipPath20"
       clipPathUnits="userSpaceOnUse"><path
         id="path18"
         d="m 253.7759,345.3074 h 198.0332 v 31 H 253.7759 Z" /></clipPath><clipPath
       id="clipPath34"
       clipPathUnits="userSpaceOnUse"><path
         id="path32"
         d="m 622.0728,440.24 h -59.7504 v 11.6 h 59.7504 z" /></clipPath><clipPath
       id="clipPath40"
       clipPathUnits="userSpaceOnUse"><path
         id="path38"
         d="M 0,0 H 861.3585 V 660.0366 H 0 Z" /></clipPath><clipPath
       id="clipPath54"
       clipPathUnits="userSpaceOnUse"><path
         id="path52"
         d="m 618.118,443.995 v 34 h 4 v -34 z" /></clipPath><clipPath
       id="clipPath60"
       clipPathUnits="userSpaceOnUse"><path
         id="path58"
         d="M 0,0 H 861.3585 V 660.0366 H 0 Z" /></clipPath><clipPath
       id="clipPath72"
       clipPathUnits="userSpaceOnUse"><path
         id="path70"
         d="m 258.3049,271.8435 h 262.4999 v 70.19531 H 258.3049 Z" /></clipPath><clipPath
       id="clipPath98"
       clipPathUnits="userSpaceOnUse"><path
         id="path96"
         d="m 628.5587,442.1512 h 134.2266 v 37.6875 H 628.5587 Z" /></clipPath><clipPath
       id="clipPath136"
       clipPathUnits="userSpaceOnUse"><path
         id="path134"
         d="m 258.9998,392.036 h 341.7608 v 90.19531 H 258.9998 Z" /></clipPath><clipPath
       id="clipPath168"
       clipPathUnits="userSpaceOnUse"><path
         id="path166"
         d="m 254.842,491.1157 h 168.0186 v 31 H 254.842 Z" /></clipPath><clipPath
       id="clipPath182"
       clipPathUnits="userSpaceOnUse"><path
         id="path180"
         d="m 258.2198,592.5366 h 95.99219 v 31 H 258.2198 Z" /></clipPath><clipPath
       id="clipPath196"
       clipPathUnits="userSpaceOnUse"><path
         id="path194"
         d="M 261.7537,532.2285 H 415.949 v 50.19531 H 261.7537 Z" /></clipPath><clipPath
       id="clipPath216"
       clipPathUnits="userSpaceOnUse"><path
         id="path214"
         d="m 566.9855,327.168 h 257.373 v 22.84375 h -257.373 z" /></clipPath><clipPath
       id="clipPath236"
       clipPathUnits="userSpaceOnUse"><path
         id="path234"
         d="m 566.1864,321.4131 h -84.1982 v 11.6 h 84.1982 z" /></clipPath><clipPath
       id="clipPath242"
       clipPathUnits="userSpaceOnUse"><path
         id="path240"
         d="M 0,0 H 861.3585 V 660.0366 H 0 Z" /></clipPath><clipPath
       id="clipPath256"
       clipPathUnits="userSpaceOnUse"><path
         id="path254"
         d="m 562.2316,326.168 v 24.8438 h 4 V 326.168 Z" /></clipPath><clipPath
       id="clipPath262"
       clipPathUnits="userSpaceOnUse"><path
         id="path260"
         d="M 0,0 H 861.3585 V 660.0366 H 0 Z" /></clipPath><clipPath
       id="clipPath274"
       clipPathUnits="userSpaceOnUse"><path
         id="path272"
         d="m 252.2773,230.8531 h 201.0303 v 31 H 252.2773 Z" /></clipPath><clipPath
       id="clipPath288"
       clipPathUnits="userSpaceOnUse"><path
         id="path286"
         d="M 260.3049,110.9014 H 522.8048 V 221.0967 H 260.3049 Z" /></clipPath><clipPath
       id="clipPath320"
       clipPathUnits="userSpaceOnUse"><path
         id="path318"
         d="M 258.4689,200.132 H 180.8 v 11.6 h 77.6689 z" /></clipPath><clipPath
       id="clipPath326"
       clipPathUnits="userSpaceOnUse"><path
         id="path324"
         d="M 0,0 H 861.3585 V 660.0366 H 0 Z" /></clipPath><clipPath
       id="clipPath340"
       clipPathUnits="userSpaceOnUse"><path
         id="path338"
         d="m 180.59,203.499 v 45.1344 h 4 V 203.499 Z" /></clipPath><clipPath
       id="clipPath346"
       clipPathUnits="userSpaceOnUse"><path
         id="path344"
         d="M 0,0 H 861.3585 V 660.0366 H 0 Z" /></clipPath><clipPath
       id="clipPath358"
       clipPathUnits="userSpaceOnUse"><path
         id="path356"
         d="m 37,200.6443 h 142.3945 v 50.84375 H 37 Z" /></clipPath><clipPath
       id="clipPath390"
       clipPathUnits="userSpaceOnUse"><path
         id="path388"
         d="m 593.0448,155.8217 h 218.6879 v 93.57812 H 593.0448 Z" /></clipPath><clipPath
       id="clipPath402"
       clipPathUnits="userSpaceOnUse"><path
         id="path400"
         d="m 596.0448,158.8217 h 212.6879 v 87.57812 H 596.0448 Z" /></clipPath><clipPath
       id="clipPath428"
       clipPathUnits="userSpaceOnUse"><path
         id="path426"
         d="m 468.8457,179.7596 h 126.2755 v 16.55326 H 468.8457 Z" /></clipPath><clipPath
       id="clipPath442"
       clipPathUnits="userSpaceOnUse"><path
         id="path440"
         d="M 48.4566,39.78577 H 167.938 v 93.57812 H 48.4566 Z" /></clipPath><clipPath
       id="clipPath454"
       clipPathUnits="userSpaceOnUse"><path
         id="path452"
         d="M 51.4566,42.78577 H 164.938 v 87.57812 H 51.4566 Z" /></clipPath><clipPath
       id="clipPath480"
       clipPathUnits="userSpaceOnUse"><path
         id="path478"
         d="m 165.8549,84.58857 h 97 v 85.2 h -97 z" /></clipPath><clipPath
       id="clipPath494"
       clipPathUnits="userSpaceOnUse"><path
         id="path492"
         d="m 298.7255,36 v 93.5781 h 11.6 V 36 Z" /></clipPath><clipPath
       id="clipPath500"
       clipPathUnits="userSpaceOnUse"><path
         id="path498"
         d="M 0,0 H 861.3585 V 660.0366 H 0 Z" /></clipPath><clipPath
       id="clipPath514"
       clipPathUnits="userSpaceOnUse"><path
         id="path512"
         d="m 343.3708,130.5781 h 169.0185 v 4 H 343.3708 Z" /></clipPath><clipPath
       id="clipPath526"
       clipPathUnits="userSpaceOnUse"><path
         id="path524"
         d="M 429.8801,134.5781 V 94.89062 h -4 v 39.68748 z" /></clipPath><clipPath
       id="clipPath532"
       clipPathUnits="userSpaceOnUse"><path
         id="path530"
         d="M 0,0 H 861.3585 V 660.0366 H 0 Z" /></clipPath><clipPath
       id="clipPath544"
       clipPathUnits="userSpaceOnUse"><path
         id="path542"
         d="m 431.1521,94.8009 h 202.4238 v 22 H 431.1521 Z" /></clipPath><clipPath
       id="clipPath558"
       clipPathUnits="userSpaceOnUse"><path
         id="path556"
         d="m 307.3594,37.05688 h 309.832 v 22 h -309.832 z" /></clipPath></defs><g
     transform="matrix(1.3333333,0,0,-1.3333333,0,880.0488)"
     id="g10"><g
       id="g12" /><g
       id="g14"><g
         clip-path="url(#clipPath20)"
         id="g16"><g
           transform="translate(258.7759,353.947)"
           id="g22"><text
             id="text26"
             style="font-variant:normal;font-weight:bold;font-size:18px;-inkscape-font-specification:Helvetica-Bold;writing-mode:lr-tb;fill:#fbef8a;font-family:'JetBrains Sans';fill-opacity:1;fill-rule:nonzero;stroke:none"
             transform="scale(1,-1)"><tspan
               id="tspan24"
               y="0">Expanding the ranges</tspan></text>
</g></g></g><g
       id="g28"><g
         clip-path="url(#clipPath34)"
         id="g30"><g
           clip-path="url(#clipPath40)"
           id="g36"><g
             transform="matrix(-1,0,0,1,621.0728,446.04)"
             id="g42"><path
               id="path44"
               style="fill:none;stroke:#ccc;stroke-width:2;stroke-linecap:butt;stroke-linejoin:miter;stroke-miterlimit:4;stroke-dasharray:none;stroke-opacity:1"
               d="m 0,0 h 48.15045 1" /></g><path
             id="path46"
             style="fill:#ccc;fill-opacity:1;fill-rule:nonzero;stroke:none"
             d="m 572.9224,450.84 -9.6,-4.8 9.6,-4.8 z" /></g></g></g><g
       id="g48"><g
         clip-path="url(#clipPath54)"
         id="g50"><g
           clip-path="url(#clipPath60)"
           id="g56"><g
             transform="matrix(0,1,1,0,620.118,444.995)"
             id="g62"><path
               id="path64"
               style="fill:none;stroke:#ccc;stroke-width:2;stroke-linecap:butt;stroke-linejoin:miter;stroke-miterlimit:4;stroke-dasharray:none;stroke-opacity:1"
               d="M 0,0 H 32" /></g></g></g></g><g
       id="g66"><g
         clip-path="url(#clipPath72)"
         id="g68"><g
           transform="translate(263.4026,322.3464)"
           id="g74"><text
             id="text78"
             style="font-variant:normal;font-weight:bold;font-size:18px;font-family:JetBrains Mono, SFMono-Regular;fill:#fff;;-inkscape-font-specification:CourierNewPS-BoldMT;writing-mode:lr-tb;fill-opacity:1;fill-rule:nonzero;stroke:none"
             transform="scale(1,-1)"><tspan
               id="tspan76"
               y="0"
               x="0 10.8018 21.6036 32.405399 43.207199 54.008999 64.810799 75.612602 86.414398 97.216202 108.018 118.8198 129.6216 140.4234 151.2252 162.02699 172.8288 183.6306 194.4324 205.23421 216.036">List&lt;VertLine&gt;.map { </tspan></text>
</g><g
           transform="translate(263.4026,302.3464)"
           id="g80"><text
             id="text84"
             style="font-variant:normal;font-weight:bold;font-size:18px;font-family:JetBrains Mono, SFMono-Regular;fill:#fff;;-inkscape-font-specification:CourierNewPS-BoldMT;writing-mode:lr-tb;fill-opacity:1;fill-rule:nonzero;stroke:none"
             transform="matrix(1,0,0,-1,43.2072,0)"><tspan
               id="tspan82"
               y="0"
               x="0 10.8018 21.6036 32.405399">... </tspan></text>
</g><g
           transform="translate(263.4026,282.3464)"
           id="g86"><text
             id="text90"
             style="font-variant:normal;font-weight:bold;font-size:18px;font-family:JetBrains Mono, SFMono-Regular;fill:#fff;;-inkscape-font-specification:CourierNewPS-BoldMT;writing-mode:lr-tb;fill-opacity:1;fill-rule:nonzero;stroke:none"
             transform="scale(1,-1)"><tspan
               id="tspan88"
               y="0"
               x="0">}</tspan></text>
</g></g></g><g
       id="g92"><g
         clip-path="url(#clipPath98)"
         id="g94"><g
           transform="translate(632.5587,464.5985)"
           id="g100"><text
             id="text104"
             style="fill:#fff;font-variant:normal;font-weight:normal;font-size:11px;font-family:'JetBrains Sans';-inkscape-font-specification:Helvetica;writing-mode:lr-tb;fill-opacity:1;fill-rule:nonzero;stroke:none"
             transform="scale(1,-1)"><tspan
               id="tspan102"
               y="0">Each </tspan></text>
</g><g
           transform="translate(632.5587,464.5985)"
           id="g106"><text
             id="text110"
             style="font-variant:normal;font-weight:normal;font-size:11px;font-family:'JetBrains Sans';font-family:JetBrains Mono, SFMono-Regular;fill:#fff;;-inkscape-font-specification:CourierNewPSMT;writing-mode:lr-tb;fill-opacity:1;fill-rule:nonzero;stroke:none"
             transform="matrix(1,0,0,-1,30.68555,0)"><tspan
               id="tspan108"
               y="0">VentLine</tspan></text>
</g><g
           transform="translate(632.5587,464.5985)"
           id="g112"><text
             id="text116"
             style="fill:#fff;font-variant:normal;font-weight:normal;font-size:11px;font-family:'JetBrains Sans';-inkscape-font-specification:Helvetica;writing-mode:lr-tb;fill-opacity:1;fill-rule:nonzero;stroke:none"
             transform="matrix(1,0,0,-1,91.62852,0)"><tspan
               id="tspan114"
               y="0">holds </tspan></text>
</g><g
           transform="translate(632.5587,449.7548)"
           id="g118"><text
             id="text122"
             style="fill:#fff;font-variant:normal;font-weight:normal;font-size:11px;font-family:'JetBrains Sans';-inkscape-font-specification:Helvetica;writing-mode:lr-tb;fill-opacity:1;fill-rule:nonzero;stroke:none"
             transform="scale(1,-1)"><tspan
               id="tspan120"
               y="0">a </tspan></text>
</g><g
           transform="translate(632.5587,449.7548)"
           id="g124"><text
             id="text128"
             style="font-variant:normal;font-weight:normal;font-size:11px;font-family:'JetBrains Sans';font-family:JetBrains Mono, SFMono-Regular;fill:#fff;;-inkscape-font-specification:CourierNewPSMT;writing-mode:lr-tb;fill-opacity:1;fill-rule:nonzero;stroke:none"
             transform="matrix(1,0,0,-1,10.00781,0)"><tspan
               id="tspan126"
               y="0">Pair&lt;Vent, Vent&gt;</tspan></text>
</g></g></g><g
       id="g130"><g
         clip-path="url(#clipPath136)"
         id="g132"><g
           transform="translate(264.0974,462.5389)"
           id="g138"><text
             id="text142"
             style="font-variant:normal;font-weight:bold;font-size:18px;font-family:JetBrains Mono, SFMono-Regular;fill:#fff;;-inkscape-font-specification:CourierNewPS-BoldMT;writing-mode:lr-tb;fill-opacity:1;fill-rule:nonzero;stroke:none"
             transform="scale(1,-1)"><tspan
               id="tspan140"
               y="0"
               x="0 10.8018 21.6036 32.405399 43.207199 54.008999 64.810799 75.612602 86.414398 97.216202 108.018 118.8198 129.6216 140.4234 151.2252 162.02699 172.8288">List&lt;VertLine&gt; { </tspan></text>
</g><g
           transform="translate(264.0974,442.5389)"
           id="g144"><text
             id="text148"
             style="font-variant:normal;font-weight:bold;font-size:18px;font-family:JetBrains Mono, SFMono-Regular;fill:#fff;;-inkscape-font-specification:CourierNewPS-BoldMT;writing-mode:lr-tb;fill-opacity:1;fill-rule:nonzero;stroke:none"
             transform="matrix(1,0,0,-1,21.6036,0)"><tspan
               id="tspan146"
               y="0"
               x="0 10.8018 21.6036 32.405399 43.207199 54.008999 64.810799 75.612602 86.414398 97.216202 108.018 118.8198 129.6216 140.4234 151.2252 162.02699 172.8288 183.6306 194.4324 205.23421 216.036 226.8378 237.6396 248.44141 259.24319 270.04501">VentLine { 0..9 to 5..9 } </tspan></text>
</g><g
           transform="translate(264.0974,422.5389)"
           id="g150"><text
             id="text154"
             style="font-variant:normal;font-weight:bold;font-size:18px;font-family:JetBrains Mono, SFMono-Regular;fill:#fff;;-inkscape-font-specification:CourierNewPS-BoldMT;writing-mode:lr-tb;fill-opacity:1;fill-rule:nonzero;stroke:none"
             transform="matrix(1,0,0,-1,21.6036,0)"><tspan
               id="tspan152"
               y="0"
               x="0 10.8018 21.6036 32.405399 43.207199 54.008999 64.810799 75.612602 86.414398 97.216202 108.018 118.8198 129.6216 140.4234 151.2252 162.02699 172.8288 183.6306 194.4324 205.23421 216.036 226.8378 237.6396 248.44141 259.24319 270.04501">VentLine { 0..9 to 2..9 } </tspan></text>
</g><g
           transform="translate(264.0974,402.5389)"
           id="g156"><text
             id="text160"
             style="font-variant:normal;font-weight:bold;font-size:18px;font-family:JetBrains Mono, SFMono-Regular;fill:#fff;;-inkscape-font-specification:CourierNewPS-BoldMT;writing-mode:lr-tb;fill-opacity:1;fill-rule:nonzero;stroke:none"
             transform="scale(1,-1)"><tspan
               id="tspan158"
               y="0"
               x="0">}</tspan></text>
</g></g></g><g
       id="g162"><g
         clip-path="url(#clipPath168)"
         id="g164"><g
           transform="translate(259.842,499.7554)"
           id="g170"><text
             id="text174"
             style="font-variant:normal;font-weight:bold;font-size:18px;-inkscape-font-specification:Helvetica-Bold;writing-mode:lr-tb;fill:#fbef8a;font-family:'JetBrains Sans';fill-opacity:1;fill-rule:nonzero;stroke:none"
             transform="scale(1,-1)"><tspan
               id="tspan172"
               y="0"
               x="0 10.0116 17.0172 27.028799 38.023201 48.034801 54.028801 65.023201 72.028801 88.034401 98.045998 109.0404 114.0408 119.0412 130.0356 141.03 152.0244">Transformed Input</tspan></text>
</g></g></g><g
       id="g176"><g
         clip-path="url(#clipPath182)"
         id="g178"><g
           transform="translate(263.2198,601.1763)"
           id="g184"><text
             id="text188"
             style="font-variant:normal;font-weight:bold;font-size:18px;-inkscape-font-specification:Helvetica-Bold;writing-mode:lr-tb;fill:#fbef8a;font-family:'JetBrains Sans';fill-opacity:1;fill-rule:nonzero;stroke:none"
             transform="scale(1,-1)"><tspan
               id="tspan186"
               y="0"
               x="0 12.9996 23.0112 37.018799 42.026402 47.034 58.035599 69.037201 80.038803">Raw Input</tspan></text>
</g></g></g><g
       id="g190"><g
         clip-path="url(#clipPath196)"
         id="g192"><g
           transform="translate(266.8513,562.7314)"
           id="g198"><text
             id="text202"
             style="font-variant:normal;font-weight:bold;font-size:18px;font-family:JetBrains Mono, SFMono-Regular;fill:#fff;;-inkscape-font-specification:CourierNewPS-BoldMT;writing-mode:lr-tb;fill-opacity:1;fill-rule:nonzero;stroke:none"
             transform="scale(1,-1)"><tspan
               id="tspan200"
               y="0"
               x="0 10.8018 21.6036 32.405399 43.207199 54.008999 64.810799 75.612602 86.414398 97.216202 108.018">0,9 -&gt; 5,9 </tspan></text>
</g><g
           transform="translate(266.8513,542.7314)"
           id="g204"><text
             id="text208"
             style="font-variant:normal;font-weight:bold;font-size:18px;font-family:JetBrains Mono, SFMono-Regular;fill:#fff;;-inkscape-font-specification:CourierNewPS-BoldMT;writing-mode:lr-tb;fill-opacity:1;fill-rule:nonzero;stroke:none"
             transform="scale(1,-1)"><tspan
               id="tspan206"
               y="0"
               x="0 10.8018 21.6036 32.405399 43.207199 54.008999 64.810799 75.612602 86.414398 97.216202">0,9 -&gt; 2,9</tspan></text>
</g></g></g><g
       id="g210"><g
         clip-path="url(#clipPath216)"
         id="g212"><g
           transform="translate(570.9855,334.7715)"
           id="g218"><text
             id="text222"
             style="fill:#fff;font-variant:normal;font-weight:normal;font-size:11px;font-family:'JetBrains Sans';-inkscape-font-specification:Helvetica;writing-mode:lr-tb;fill-opacity:1;fill-rule:nonzero;stroke:none"
             transform="scale(1,-1)"><tspan
               id="tspan220"
               y="0">This will expand all ranges for each </tspan></text>
</g><g
           transform="translate(570.9855,334.7715)"
           id="g224"><text
             id="text228"
             style="font-variant:normal;font-weight:normal;font-size:11px;font-family:'JetBrains Sans';font-family:JetBrains Mono, SFMono-Regular;fill:#fff;;-inkscape-font-specification:CourierNewPSMT;writing-mode:lr-tb;fill-opacity:1;fill-rule:nonzero;stroke:none"
             transform="matrix(1,0,0,-1,190.7637,0)"><tspan
               id="tspan226"
               y="0"
               x="0 7.2012 14.4024 21.6036 28.8048 36.006001 43.207199 50.408401">VentLine</tspan></text>
</g></g></g><g
       id="g230"><g
         clip-path="url(#clipPath236)"
         id="g232"><g
           clip-path="url(#clipPath242)"
           id="g238"><g
             transform="matrix(-1,0,0,1,565.1864,327.2131)"
             id="g244"><path
               id="path246"
               style="fill:none;stroke:#ccc;stroke-width:2;stroke-linecap:butt;stroke-linejoin:miter;stroke-miterlimit:4;stroke-dasharray:none;stroke-opacity:1"
               d="m 0,0 h 72.5982 1" /></g><path
             id="path248"
             style="fill:#ccc;fill-opacity:1;fill-rule:nonzero;stroke:none"
             d="m 492.5882,332.0131 -9.6,-4.8 9.6,-4.8 z" /></g></g></g><g
       id="g250"><g
         clip-path="url(#clipPath256)"
         id="g252"><g
           clip-path="url(#clipPath262)"
           id="g258"><g
             transform="matrix(0,1,1,0,564.2316,327.168)"
             id="g264"><path
               id="path266"
               style="fill:none;stroke:#ccc;stroke-width:2;stroke-linecap:butt;stroke-linejoin:miter;stroke-miterlimit:4;stroke-dasharray:none;stroke-opacity:1"
               d="M 0,0 H 22.84375" /></g></g></g></g><g
       id="g268"><g
         clip-path="url(#clipPath274)"
         id="g270"><g
           transform="translate(257.2773,239.4927)"
           id="g276"><text
             id="text280"
             style="font-variant:normal;font-weight:bold;font-size:18px;-inkscape-font-specification:Helvetica-Bold;writing-mode:lr-tb;fill:#fbef8a;font-family:'JetBrains Sans';fill-opacity:1;fill-rule:nonzero;stroke:none"
             transform="scale(1,-1)"><tspan
               id="tspan278"
               y="0"
               x="0 14.0004 21.006001 32.000401 42.994801 53.989201 58.989601 69.984001 80.978401 85.978798 90.979202 96.973198 101.9736 112.968 122.9796 129.9852 134.9856 144.99719 155.0088 160.0092 171.0036 181.0152">Grouping it per values</tspan></text>
</g></g></g><g
       id="g282"><g
         clip-path="url(#clipPath288)"
         id="g284"><g
           transform="translate(265.4026,201.4043)"
           id="g290"><text
             id="text294"
             style="font-variant:normal;font-weight:bold;font-size:18px;font-family:JetBrains Mono, SFMono-Regular;fill:#fff;;-inkscape-font-specification:CourierNewPS-BoldMT;writing-mode:lr-tb;fill-opacity:1;fill-rule:nonzero;stroke:none"
             transform="scale(1,-1)"><tspan
               id="tspan292"
               y="0"
               x="0 10.8018 21.6036 32.405399 43.207199 54.008999 64.810799 75.612602 86.414398 97.216202 108.018">.flatten() </tspan></text>
</g><g
           transform="translate(265.4026,181.4043)"
           id="g296"><text
             id="text300"
             style="font-variant:normal;font-weight:bold;font-size:18px;font-family:JetBrains Mono, SFMono-Regular;fill:#fff;;-inkscape-font-specification:CourierNewPS-BoldMT;writing-mode:lr-tb;fill-opacity:1;fill-rule:nonzero;stroke:none"
             transform="scale(1,-1)"><tspan
               id="tspan298"
               y="0"
               x="0 10.8018 21.6036 32.405399 43.207199 54.008999 64.810799 75.612602 86.414398 97.216202 108.018 118.8198 129.6216 140.4234 151.2252 162.02699 172.8288 183.6306 194.4324">.groupingBy { it } </tspan></text>
</g><g
           transform="translate(265.4026,161.4043)"
           id="g302"><text
             id="text306"
             style="font-variant:normal;font-weight:bold;font-size:18px;font-family:JetBrains Mono, SFMono-Regular;fill:#fff;;-inkscape-font-specification:CourierNewPS-BoldMT;writing-mode:lr-tb;fill-opacity:1;fill-rule:nonzero;stroke:none"
             transform="scale(1,-1)"><tspan
               id="tspan304"
               y="0"
               x="0 10.8018 21.6036 32.405399 43.207199 54.008999 64.810799 75.612602 86.414398 97.216202 108.018 118.8198 129.6216">.eachCount() </tspan></text>
</g><g
           transform="translate(265.4026,141.4043)"
           id="g308"><text
             id="text312"
             style="font-variant:normal;font-weight:bold;font-size:18px;font-family:JetBrains Mono, SFMono-Regular;fill:#fff;;-inkscape-font-specification:CourierNewPS-BoldMT;writing-mode:lr-tb;fill-opacity:1;fill-rule:nonzero;stroke:none"
             transform="scale(1,-1)"><tspan
               id="tspan310"
               y="0"
               x="0 10.8018 21.6036 32.405399 43.207199 54.008999 64.810799 75.612602 86.414398 97.216202 108.018 118.8198 129.6216 140.4234 151.2252 162.02699 172.8288 183.6306 194.4324 205.23421 216.036 226.8378 237.6396 248.44141">.count { it.value &gt; 1 } </tspan></text>
</g></g></g><g
       id="g314"><g
         clip-path="url(#clipPath320)"
         id="g316"><g
           clip-path="url(#clipPath326)"
           id="g322"><g
             transform="matrix(-1,0,0,1,257.4689,205.932)"
             id="g328"><path
               id="path330"
               style="fill:none;stroke:#ccc;stroke-width:2;stroke-linecap:butt;stroke-linejoin:miter;stroke-miterlimit:4;stroke-dasharray:none;stroke-opacity:1"
               d="m 8.6,0 h 1 66.06884" /></g><path
             id="path332"
             style="fill:#ccc;fill-opacity:1;fill-rule:nonzero;stroke:none"
             d="m 247.8689,201.132 9.6,4.8 -9.6,4.8 z" /></g></g></g><g
       id="g334"><g
         clip-path="url(#clipPath340)"
         id="g336"><g
           clip-path="url(#clipPath346)"
           id="g342"><g
             transform="matrix(0,1,1,0,182.59,204.499)"
             id="g348"><path
               id="path350"
               style="fill:none;stroke:#ccc;stroke-width:2;stroke-linecap:butt;stroke-linejoin:miter;stroke-miterlimit:4;stroke-dasharray:none;stroke-opacity:1"
               d="M 0,0 H 43.1344" /></g></g></g></g><g
       id="g352"><g
         clip-path="url(#clipPath358)"
         id="g354"><g
           transform="translate(41,236.2478)"
           id="g360"><text
             id="text364"
             style="font-variant:normal;font-weight:normal;fill:#fff;font-size:11px;font-family:'JetBrains Sans';-inkscape-font-specification:Helvetica;writing-mode:lr-tb;fill-opacity:1;fill-rule:nonzero;stroke:none"
             transform="scale(1,-1)"><tspan
               id="tspan362"
               y="0">By flatting the list, we are</tspan></text>
</g><g
           transform="translate(41,222.2478)"
           id="g366"><text
             id="text370"
             style="fill:#fff;font-variant:normal;font-weight:normal;font-size:11px;font-family:'JetBrains Sans';-inkscape-font-specification:Helvetica;writing-mode:lr-tb;fill-opacity:1;fill-rule:nonzero;stroke:none"
             transform="scale(1,-1)"><tspan
               id="tspan368"
               y="0">transforming it in a single</tspan></text>
</g><g
           transform="translate(41,208.2478)"
           id="g372"><text
             id="text376"
             style="fill:#fff;font-variant:normal;font-weight:normal;font-size:11px;font-family:'JetBrains Sans';-inkscape-font-specification:Helvetica;writing-mode:lr-tb;fill-opacity:1;fill-rule:nonzero;stroke:none"
             transform="scale(1,-1)"><tspan
               id="tspan374"
               y="0">level </tspan></text>
</g><g
           transform="translate(41,208.2478)"
           id="g378"><text
             id="text382"
             style="font-variant:normal;font-weight:normal;font-size:11px;font-family:'JetBrains Sans';font-family:JetBrains Mono, SFMono-Regular;fill:#fff;;-inkscape-font-specification:CourierNewPSMT;writing-mode:lr-tb;fill-opacity:1;fill-rule:nonzero;stroke:none"
             transform="matrix(1,0,0,-1,28.01367,0)"><tspan
               id="tspan380"
               y="0"
               x="0 7.2012 14.4024 21.6036 28.8048 36.006001 43.207199 50.408401 57.6096 64.810799 72.012001 79.213203">List&lt;String&gt;</tspan></text>
</g></g></g><g
       id="g384"><g
         clip-path="url(#clipPath390)"
         id="g386"><g
           transform="matrix(1,0,0,-1,595.0448,247.3998)"
           id="g392"><path
             id="path394"
             style="fill:none;stroke:#64c466;stroke-width:2;stroke-linecap:butt;stroke-linejoin:miter;stroke-miterlimit:4;stroke-dasharray:none;stroke-opacity:1"
             d="M 0,0 H 214.6879 V 89.57812 H 0 Z" /></g></g></g><g
       id="g396"><g
         clip-path="url(#clipPath402)"
         id="g398"><g
           transform="translate(607.0448,213.9249)"
           id="g404"><text
             id="text408"
             style="font-variant:normal;font-weight:bold;font-size:13.30000019px;font-family:JetBrains Mono, SFMono-Regular;fill:#fff;;-inkscape-font-specification:CourierNewPS-BoldMT;writing-mode:lr-tb;fill-opacity:1;fill-rule:nonzero;stroke:none"
             transform="scale(1,-1)"><tspan
               id="tspan406"
               y="0"
               x="0 7.9813299 15.96266 23.943991 31.92532 39.906651 47.887981 55.869308 63.850639 71.83197 79.813301 87.794632 95.775963 103.75729 111.73862 119.71995 127.70128 135.68262 143.66394 151.64526 159.6266 167.60793 175.58926 183.57059 191.55193">Group #1: [&quot;0,9&quot;, &quot;0,9&quot;] </tspan></text>
</g><g
           transform="translate(607.0448,198.9249)"
           id="g410"><text
             id="text414"
             style="font-variant:normal;font-weight:bold;font-size:13.30000019px;font-family:JetBrains Mono, SFMono-Regular;fill:#fff;;-inkscape-font-specification:CourierNewPS-BoldMT;writing-mode:lr-tb;fill-opacity:1;fill-rule:nonzero;stroke:none"
             transform="scale(1,-1)"><tspan
               id="tspan412"
               y="0"
               x="0 7.9813299 15.96266 23.943991 31.92532 39.906651 47.887981 55.869308 63.850639 71.83197 79.813301 87.794632 95.775963 103.75729 111.73862 119.71995 127.70128 135.68262 143.66394 151.64526 159.6266 167.60793 175.58926 183.57059 191.55193">Group #2: [&quot;1,9&quot;, &quot;1,9&quot;] </tspan></text>
</g><g
           transform="translate(607.0448,183.9249)"
           id="g416"><text
             id="text420"
             style="font-variant:normal;font-weight:bold;font-size:13.30000019px;font-family:JetBrains Mono, SFMono-Regular;fill:#fff;;-inkscape-font-specification:CourierNewPS-BoldMT;writing-mode:lr-tb;fill-opacity:1;fill-rule:nonzero;stroke:none"
             transform="scale(1,-1)"><tspan
               id="tspan418"
               y="0"
               x="0 7.9813299 15.96266 23.943991 31.92532 39.906651 47.887981 55.869308 63.850639 71.83197 79.813301 87.794632 95.775963 103.75729 111.73862 119.71995 127.70128">Group #?: [&quot;5,9&quot;]</tspan></text>
</g></g></g><g
       id="g422"><g
         clip-path="url(#clipPath428)"
         id="g424"><g
           transform="matrix(1,0,0,-1,469.922,194.3157)"
           id="g430"><path
             id="path432"
             style="fill:none;stroke:#64c466;stroke-width:2;stroke-linecap:butt;stroke-linejoin:miter;stroke-miterlimit:4;stroke-dasharray:none;stroke-opacity:1"
             d="M 124.1228,0 9.572158,8.770171 8.574905,8.846523" /></g><path
           id="path434"
           style="fill:#64c466;fill-opacity:1;fill-rule:nonzero;stroke:none"
           d="m 479.1276,190.3316 -9.2056,-5.5189 9.9384,-4.0531 z" /></g></g><g
       id="g436"><g
         clip-path="url(#clipPath442)"
         id="g438"><g
           transform="matrix(1,0,0,-1,50.4566,131.3639)"
           id="g444"><path
             id="path446"
             style="fill:none;stroke:#ea4d3d;stroke-width:2;stroke-linecap:butt;stroke-linejoin:miter;stroke-miterlimit:4;stroke-dasharray:none;stroke-opacity:1"
             d="M 0,0 H 115.4814 V 89.57813 H 0 Z" /></g></g></g><g
       id="g448"><g
         clip-path="url(#clipPath454)"
         id="g450"><g
           transform="translate(62.4566,98.14612)"
           id="g456"><text
             id="text460"
             style="font-variant:normal;font-weight:bold;font-size:14px;font-family:JetBrains Mono, SFMono-Regular;fill:#fff;;-inkscape-font-specification:CourierNewPS-BoldMT;writing-mode:lr-tb;fill-opacity:1;fill-rule:nonzero;stroke:none"
             transform="scale(1,-1)"><tspan
               id="tspan458"
               y="0"
               x="0 8.4013996 16.802799 25.204201 33.605598 42.007 50.408401 58.809799 67.211197 75.612602 84.014">&quot;0,9&quot; -&gt; 2 </tspan></text>
</g><g
           transform="translate(62.4566,82.14612)"
           id="g462"><text
             id="text466"
             style="font-variant:normal;font-weight:bold;font-size:14px;font-family:JetBrains Mono, SFMono-Regular;fill:#fff;;-inkscape-font-specification:CourierNewPS-BoldMT;writing-mode:lr-tb;fill-opacity:1;fill-rule:nonzero;stroke:none"
             transform="scale(1,-1)"><tspan
               id="tspan464"
               y="0"
               x="0 8.4013996 16.802799 25.204201 33.605598 42.007 50.408401 58.809799 67.211197 75.612602 84.014">&quot;1,9&quot; -&gt; 2 </tspan></text>
</g><g
           transform="translate(62.4566,66.14612)"
           id="g468"><text
             id="text472"
             style="font-variant:normal;font-weight:bold;font-size:14px;font-family:JetBrains Mono, SFMono-Regular;fill:#fff;;-inkscape-font-specification:CourierNewPS-BoldMT;writing-mode:lr-tb;fill-opacity:1;fill-rule:nonzero;stroke:none"
             transform="scale(1,-1)"><tspan
               id="tspan470"
               y="0"
               x="0 8.4013996 16.802799 25.204201 33.605598 42.007 50.408401 58.809799 67.211197 75.612602">&quot;5,9&quot; -&gt; 1</tspan></text>
</g></g></g><g
       id="g474"><g
         clip-path="url(#clipPath480)"
         id="g476"><g
           transform="matrix(1,0,0,-1,166.8549,163.9886)"
           id="g482"><path
             id="path484"
             style="fill:none;stroke:#ea4d3d;stroke-width:2;stroke-linecap:butt;stroke-linejoin:miter;stroke-miterlimit:4;stroke-dasharray:none;stroke-opacity:1"
             d="M 0,77.4 H 47.5 V 0 h 37.9 1" /></g><path
           id="path486"
           style="fill:#ea4d3d;font-family:'JetBrains Sans';fill-opacity:1;fill-rule:nonzero;stroke:none"
           d="m 252.2549,159.1886 9.6,4.8 -9.6,4.8 z" /></g></g><g
       id="g488"><g
         clip-path="url(#clipPath494)"
         id="g490"><g
           clip-path="url(#clipPath500)"
           id="g496"><g
             transform="matrix(0,1,1,0,304.5255,37)"
             id="g502"><path
               id="path504"
               style="fill:none;stroke:#ccc;stroke-width:2;stroke-linecap:butt;stroke-linejoin:miter;stroke-miterlimit:4;stroke-dasharray:none;stroke-opacity:1"
               d="m 0,0 h 81.97813 1" /></g><path
             id="path506"
             style="fill:#ccc;fill-opacity:1;fill-rule:nonzero;stroke:none"
             d="m 309.3255,118.9781 -4.8,9.6 -4.8,-9.6 z" /></g></g></g><g
       id="g508"><g
         clip-path="url(#clipPath514)"
         id="g510"><g
           transform="matrix(1,0,0,-1,344.3708,132.5781)"
           id="g516"><path
             id="path518"
             style="fill:none;stroke:#ccc;stroke-width:2;stroke-linecap:butt;stroke-linejoin:miter;stroke-miterlimit:4;stroke-dasharray:none;stroke-opacity:1"
             d="M 0,0 H 167.0185" /></g></g></g><g
       id="g520"><g
         clip-path="url(#clipPath526)"
         id="g522"><g
           clip-path="url(#clipPath532)"
           id="g528"><g
             transform="matrix(0,-1,-1,0,427.8801,133.5781)"
             id="g534"><path
               id="path536"
               style="fill:none;stroke:#ccc;stroke-width:2;stroke-linecap:butt;stroke-linejoin:miter;stroke-miterlimit:4;stroke-dasharray:none;stroke-opacity:1"
               d="M 0,0 H 37.6875" /></g></g></g></g><g
       id="g538"><g
         clip-path="url(#clipPath544)"
         id="g540"><g
           transform="translate(435.1521,101.5607)"
           id="g546"><text
             id="text550"
             style="fill:#fff;font-variant:normal;font-weight:normal;font-size:11px;font-family:'JetBrains Sans';-inkscape-font-specification:Helvetica;writing-mode:lr-tb;fill-opacity:1;fill-rule:nonzero;stroke:none"
             transform="scale(1,-1)"><tspan
               id="tspan548"
               y="0">This predicate will be used as a filter</tspan></text>
</g></g></g><g
       id="g552"><g
         clip-path="url(#clipPath558)"
         id="g554"><g
           transform="translate(311.3594,43.81665)"
           id="g560"><text
             id="text564"
             style="fill:#fff;font-variant:normal;font-weight:normal;font-size:11px;font-family:'JetBrains Sans';-inkscape-font-specification:Helvetica;writing-mode:lr-tb;fill-opacity:1;fill-rule:nonzero;stroke:none"
             transform="scale(1,-1)"><tspan
               id="tspan562"
               y="0">It will count the values that is not filtered by the predicate</tspan></text>
</g></g></g></g></svg>